<svg id="Base" xmlns="http://www.w3.org/2000/svg" viewBox="0 0 1920 1920"><path d="M1012.95,0H1854.9A65.1,65.1,0,0,1,1920,65.1V907.16a65.1,65.1,0,0,1-65.1,65.1h-12.15a894.9,894.9,0,0,1-894.9-894.9V65.1A65.1,65.1,0,0,1,1012.95,0Z"/><ellipse cx="89.58" cy="261.76" rx="89.58" ry="89.59"/><path d="M208.89,951.59a89.73,89.73,0,1,1,34.23-6.85A89.35,89.35,0,0,1,208.89,951.59Z"/><path d="M548.69,1460.43A89.59,89.59,0,1,1,612,1434.19,89,89,0,0,1,548.69,1460.43Z"/><path d="M1057.33,1800.53a89.62,89.62,0,1,1,82.81-55.33A89,89,0,0,1,1057.33,1800.53Z"/><ellipse cx="1657.47" cy="1830.41" rx="89.58" ry="89.59"/></svg>