<svg id="Base" xmlns="http://www.w3.org/2000/svg" viewBox="0 0 1920 1920"><path d="M1777.68,395.56c-294.36-312.47-813.9-120.64-850.2,293.21a115.84,115.84,0,0,0-45.48,28L862.45,736.3a367.83,367.83,0,0,1-14.22-114c.94-128.36,63.73-230.69,153.3-292.84,92.4-64.14,86.07-203.35-11.06-260.07C811.14-35.36,569.26-29.5,395,142.2,83.24,435.91,273.51,953.77,685.44,992.14A116,116,0,0,0,716.37,1048L728,1059.62a369.18,369.18,0,0,1-106.26,12c-128.35-.94-230.68-63.73-292.84-153.3C264.73,826,125.51,832.29,68.79,929.42-35.92,1108.75-30,1350.63,141.65,1524.88c291.22,309.13,802.9,124.71,848.94-280a116,116,0,0,0,57.05-31.21l13.52-13.52a371.5,371.5,0,0,1,9.95,98c-.95,128.35-63.74,230.68-153.3,292.84-92.41,64.13-86.08,203.35,11.06,260.07,179.32,104.71,421.2,98.84,595.46-72.86,309.8-291.85,123.89-805.08-282.65-849.19a116,116,0,0,0-28.4-46.66l-21.64-21.64a369.55,369.55,0,0,1,106-12c128.35,1,230.69,63.74,292.84,153.3,64.14,92.41,203.35,86.08,260.07-11.06C1955.25,811.69,1949.39,569.82,1777.68,395.56Z"/></svg>