<svg id="Base" xmlns="http://www.w3.org/2000/svg" viewBox="0 0 1920 1920"><path d="M373.66,1925.18h267.8a48.85,48.85,0,0,0,48.85-48.85v-562c0-43.52-52.62-65.31-83.39-34.54l-267.8,267.81a48.84,48.84,0,0,0-14.31,34.54v294.21A48.85,48.85,0,0,0,373.66,1925.18Z"/><path d="M809.44,1925.18h267.81a48.85,48.85,0,0,0,48.84-48.85V878.53c0-43.52-52.61-65.32-83.38-34.54L774.9,1111.79a48.83,48.83,0,0,0-14.3,34.54v730A48.85,48.85,0,0,0,809.44,1925.18Z"/><path d="M1245.23,1925.18H1513a48.85,48.85,0,0,0,48.85-48.85V442.74c0-43.52-52.62-65.31-83.39-34.54L1210.69,676a48.86,48.86,0,0,0-14.31,34.54V1876.33A48.85,48.85,0,0,0,1245.23,1925.18Z"/><path d="M1681,1925.18h195.31a48.85,48.85,0,0,0,48.85-48.85V79.44c0-43.52-52.61-65.31-83.39-34.54L1646.48,240.22a48.8,48.8,0,0,0-14.31,34.54V1876.33A48.85,48.85,0,0,0,1681,1925.18Z"/><path d="M171.14,1715.56,44.9,1841.79c-30.77,30.78-9,83.39,34.54,83.39H205.68a48.85,48.85,0,0,0,48.84-48.85V1750.1C254.52,1706.58,201.91,1684.79,171.14,1715.56Z"/></svg>