<svg id="Base" xmlns="http://www.w3.org/2000/svg" viewBox="0 0 1920 1920"><path d="M1012.95,0H1854.9A65.1,65.1,0,0,1,1920,65.1V907.16a65.1,65.1,0,0,1-65.1,65.1h-12.15a894.9,894.9,0,0,1-894.9-894.9V65.1A65.1,65.1,0,0,1,1012.95,0Z"/><ellipse cx="89.58" cy="261.76" rx="89.58" ry="89.59"/><rect x="475.91" y="-79.78" width="179.19" height="683.08" rx="88.46" transform="translate(303.74 827.27) rotate(-90)"/><path d="M208.89,951.59a89.73,89.73,0,1,1,34.23-6.85A89.35,89.35,0,0,1,208.89,951.59Z"/><path d="M381.47,693.48,847,500.62A89.58,89.58,0,0,1,964.08,549.1h0A89.6,89.6,0,0,1,915.6,666.16L450,859a89.6,89.6,0,0,1-117-48.49h0A89.6,89.6,0,0,1,381.47,693.48Z"/><path d="M548.69,1460.43A89.59,89.59,0,1,1,612,1434.19,89,89,0,0,1,548.69,1460.43Z"/><path d="M643.71,1149.11,1000,792.74a89.59,89.59,0,0,1,126.69,0h0a89.62,89.62,0,0,1,0,126.71L770.4,1275.81a89.57,89.57,0,0,1-126.69,0h0A89.59,89.59,0,0,1,643.71,1149.11Z"/><path d="M1057.33,1800.53a89.62,89.62,0,1,1,82.81-55.33A89,89,0,0,1,1057.33,1800.53Z"/><ellipse cx="1657.47" cy="1830.41" rx="89.58" ry="89.59"/></svg>