<svg id="Base" xmlns="http://www.w3.org/2000/svg" viewBox="0 0 1920 1920"><path d="M368.36,1919.88h267.8A48.85,48.85,0,0,0,685,1871V1309c0-43.52-52.62-65.31-83.39-34.54l-267.8,267.81a48.84,48.84,0,0,0-14.31,34.54V1871A48.85,48.85,0,0,0,368.36,1919.88Z"/><path d="M804.14,1919.88H1072A48.85,48.85,0,0,0,1120.8,1871V873.23c0-43.52-52.62-65.32-83.39-34.54L769.6,1106.49A48.85,48.85,0,0,0,755.3,1141v730A48.85,48.85,0,0,0,804.14,1919.88Z"/><path d="M1239.93,1919.88h267.8a48.85,48.85,0,0,0,48.85-48.85V437.44c0-43.52-52.61-65.31-83.39-34.54l-267.8,267.8a48.86,48.86,0,0,0-14.31,34.54V1871A48.85,48.85,0,0,0,1239.93,1919.88Z"/><path d="M1675.72,1919.88H1871a48.85,48.85,0,0,0,48.85-48.85V74.14c0-43.52-52.61-65.31-83.39-34.54L1641.18,234.92a48.84,48.84,0,0,0-14.31,34.54V1871A48.85,48.85,0,0,0,1675.72,1919.88Z"/><path d="M165.84,1710.26,39.6,1836.49c-30.77,30.78-9,83.39,34.54,83.39H200.38A48.85,48.85,0,0,0,249.22,1871V1744.8C249.22,1701.28,196.61,1679.49,165.84,1710.26Z"/></svg>