<svg id="Base" xmlns="http://www.w3.org/2000/svg" viewBox="0 0 1920 1920"><g id="vertical_vane"><path d="M0,436.34v571.87a52,52,0,0,0,52,52h85.59a52,52,0,0,0,52-52V958a51.94,51.94,0,0,1,51.95-51.94H1678.56a51.94,51.94,0,0,1,52,51.94v50.21a52,52,0,0,0,52,52h85.59a52,52,0,0,0,52-52V436.34a52,52,0,0,0-52-51.95H52A52,52,0,0,0,0,436.34Z"/><path d="M261.15,1055.61H407.81c19.16,0,33.38,22.19,29.2,45.56l-72.45,405.2c-3.05,17.09-15.19,29.24-29.2,29.24H159.71c-20.19,0-34.58-24.48-28.55-48.57l101.44-405.2C236.51,1066.23,248.07,1055.61,261.15,1055.61Z"/><path d="M510.69,1055.61h148c17.89,0,31.78,19.5,29.72,41.72l-37.68,405.2c-1.75,18.86-14.53,33.08-29.72,33.08H444c-18.94,0-33.12-21.74-29.3-44.93l66.66-405.2C484.25,1068.09,496.49,1055.61,510.69,1055.61Z"/></g></svg>