<svg id="Base" xmlns="http://www.w3.org/2000/svg" viewBox="0 0 1920 1920"><g id="vertical_vane"><path d="M0,436.34v571.87a52,52,0,0,0,52,52h85.59a52,52,0,0,0,52-52V958a51.94,51.94,0,0,1,51.95-51.94H1678.56a51.94,51.94,0,0,1,52,51.94v50.21a52,52,0,0,0,52,52h85.59a52,52,0,0,0,52-52V436.34a52,52,0,0,0-52-51.95H52A52,52,0,0,0,0,436.34Z"/><path d="M1261.3,1055.61h148c14.2,0,26.44,12.48,29.3,29.87l66.66,405.2c3.82,23.19-10.36,44.93-29.3,44.93H1299c-15.19,0-28-14.22-29.72-33.08l-37.68-405.2C1229.52,1075.11,1243.41,1055.61,1261.3,1055.61Z"/><path d="M1512.19,1055.61h146.66c13.08,0,24.64,10.62,28.55,26.23L1788.84,1487c6,24.09-8.36,48.57-28.55,48.57H1584.64c-14,0-26.15-12.15-29.2-29.24L1483,1101.17C1478.81,1077.8,1493,1055.61,1512.19,1055.61Z"/></g></svg>