<svg id="Base" xmlns="http://www.w3.org/2000/svg" viewBox="0 0 1920 1920"><g id="vertical_vane"><path d="M0,436.34v571.87a52,52,0,0,0,52,52h85.59a52,52,0,0,0,52-52V958a51.94,51.94,0,0,1,51.95-51.94H1678.56a51.94,51.94,0,0,1,52,51.94v50.21a52,52,0,0,0,52,52h85.59a52,52,0,0,0,52-52V436.34a52,52,0,0,0-52-51.95H52A52,52,0,0,0,0,436.34Z"/><path d="M760.56,1055.61H909.24c16.63,0,30.07,17,29.92,37.73l-2.9,405.2c-.14,20.53-13.49,37.07-29.91,37.07H728.67c-17.68,0-31.5-19.07-29.77-41.06l31.88-405.2C732.29,1070.2,745.17,1055.61,760.56,1055.61Z"/><path d="M1010.76,1055.61h148.68c15.39,0,28.27,14.59,29.78,33.74l31.88,405.2c1.73,22-12.09,41.06-29.77,41.06H1013.65c-16.42,0-29.77-16.54-29.91-37.07l-2.9-405.2C980.69,1072.56,994.13,1055.61,1010.76,1055.61Z"/></g></svg>